<svg width="868.000000pt" height="288.000000pt" viewBox="0 0 868.000000 288.000000" xmlns="http://www.w3.org/2000/svg">
  <g transform="translate(0.000000,288.000000) scale(0.100000,-0.100000)" fill="#fefefe" stroke="none">
    <path d="M0 1440 c0 -1440 0 -1440 4340 -1440 4340 0 4340 0 4340 1440 0 1440
0 1440 -4340 1440 -4340 0 -4340 0 -4340 -1440z m4640 223 c47 -17 47 -17 23
-64 -23 -46 -24 -47 -56 -38 -76 22 -129 12 -125 -22 3 -28 8 -34 44 -44 124
-36 169 -81 169 -167 0 -135 -185 -202 -347 -124 -56 27 -56 27 -31 71 32 58
37 60 78 35 55 -34 130 -26 130 15 0 27 -6 33 -73 65 -249 120 -79 368 188
273z m496 -2 c92 -42 140 -107 145 -198 3 -48 3 -48 -174 -51 -160 -2 -177 -4
-177 -20 0 -41 15 -64 51 -82 59 -30 92 -26 165 20 37 23 134 -30 111 -60
-148 -190 -488 -83 -489 154 -1 180 203 312 368 237z m750 9 c83 0 83 0 113
-65 17 -36 31 -67 31 -70 0 -2 12 -29 26 -60 39 -82 50 -75 113 70 55 125 55
125 149 125 94 0 94 0 80 -22 -8 -13 -39 -68 -68 -123 -29 -55 -66 -125 -83
-155 -18 -30 -46 -82 -63 -115 -31 -60 -31 -60 -85 -63 -62 -3 -40 -29 -162
198 -34 63 -74 138 -89 165 -16 28 -31 58 -34 68 -11 30 -30 18 -55 -35 -24
-53 -24 -53 -94 -50 -75 3 -82 0 -108 -38 -14 -20 -17 -50 -17 -167 0 -143 0
-143 -80 -143 -80 0 -80 0 -80 240 0 240 0 240 80 240 79 0 80 0 80 -25 0 -33
15 -31 70 6 43 29 48 30 119 25 41 -3 111 -6 157 -6z m916 -7 c93 -36 143
-100 154 -197 7 -56 7 -56 -170 -56 -177 0 -177 0 -174 -37 6 -73 98 -102 184
-58 49 25 49 25 97 4 56 -27 56 -29 14 -72 -162 -161 -477 -42 -477 179 0 171
207 302 372 237z m637 2 c55 -28 -15 -135 -84 -128 -125 13 -145 -16 -145
-209 0 -138 0 -138 -80 -138 -80 0 -80 0 -78 238 3 237 3 237 81 240 77 3 77
3 77 -28 0 -39 10 -38 66 5 51 39 112 47 163 20z" />
    <path d="M4980 1571 c-81 -43 -55 -81 54 -81 102 0 117 10 84 52 -40 49 -84
58 -138 29z" />
    <path d="M6649 1567 c-75 -50 -55 -77 60 -77 107 0 121 8 88 51 -36 48 -99 59
-148 26z" />
  </g>
  <g transform="translate(0.000000,288.000000) scale(0.100000,-0.100000)" fill="#00c1ca" stroke="none">
    <path d="M4414 1671 c-147 -67 -132 -214 28 -291 55 -26 73 -40 73 -55 0 -32
-64 -32 -118 -1 -50 30 -54 28 -97 -52 -28 -50 -23 -56 68 -91 167 -65 337 10
337 147 0 97 -41 139 -169 177 -31 9 -42 18 -44 35 -4 23 63 26 135 5 19 -6
73 70 73 103 0 38 -216 55 -286 23z" />
    <path d="M4910 1665 c-218 -115 -205 -394 23 -487 107 -43 291 5 337 89 29 51
-92 108 -144 68 -76 -58 -184 -25 -186 57 0 4 80 9 178 10 177 3 177 3 173 62
-11 179 -217 288 -381 201z m160 -101 c28 -19 50 -44 50 -56 0 -4 -39 -8 -86
-8 -82 0 -85 1 -82 21 6 43 79 69 118 43z" />
    <path d="M5600 1661 c-45 -31 -45 -31 -48 -6 -3 25 -5 25 -93 25 -89 0 -89 0
-89 -250 0 -250 0 -250 90 -250 90 0 90 0 90 143 0 117 3 147 17 167 26 38 33
41 108 38 69 -3 69 -3 95 51 22 45 28 51 33 35 4 -10 19 -41 35 -69 15 -27 55
-102 89 -165 122 -227 99 -201 172 -198 64 3 64 3 95 63 17 33 45 85 63 115
17 30 54 100 83 155 29 55 59 109 66 120 29 41 20 45 -89 45 -103 0 -103 0
-158 -125 -30 -69 -57 -125 -60 -125 -6 0 -59 104 -59 115 0 3 -14 34 -31 70
-30 65 -30 65 -108 65 -43 0 -118 3 -167 6 -87 5 -90 5 -134 -25z" />
    <path d="M6589 1666 c-337 -167 -115 -619 237 -484 53 21 134 86 134 109 0 34
-120 68 -155 45 -74 -50 -175 -30 -183 37 -3 27 -3 27 174 27 177 0 177 0 171
65 -17 180 -212 283 -378 201z m154 -103 c31 -16 56 -40 57 -55 0 -5 -41 -8
-91 -8 -103 0 -115 14 -50 57 41 27 43 28 84 6z" />
    <path d="M7266 1655 c-46 -35 -46 -35 -46 -5 0 31 0 31 -87 28 -88 -3 -88 -3
-91 -250 -2 -248 -2 -248 88 -248 90 0 90 0 90 138 0 152 13 195 65 208 22 5
41 4 109 -8 17 -3 86 105 86 134 0 48 -153 50 -214 3z" />
  </g>
  <g transform="translate(0.000000,288.000000) scale(0.100000,-0.100000)" fill="#c2c2c2" stroke="none">
    <path d="M1381 1800 c-19 -11 -39 -24 -45 -31 -6 -6 9 0 34 14 25 13 52 27 60
30 13 5 13 5 0 6 -8 0 -30 -9 -49 -19z" />
    <path d="M1478 1665 c-21 -14 -43 -35 -49 -48 -9 -17 -5 -15 17 8 16 17 40 38
54 47 14 9 23 17 20 17 -3 1 -22 -10 -42 -24z" />
    <path d="M2211 1651 c45 -18 119 -82 119 -104 0 -5 3 -7 6 -4 25 25 -102 127
-156 126 -8 0 6 -8 31 -18z" />
    <path d="M2472 1403 c2 -270 6 -239 10 90 2 97 0 177 -4 177 -5 0 -7 -120 -6
-267z" />
    <path d="M2617 1635 c16 -33 43 -48 43 -24 0 5 -5 7 -11 4 -5 -4 -15 7 -22 24
-6 17 -15 31 -19 31 -4 0 0 -16 9 -35z" />
    <path d="M2918 1644 c17 -9 32 -23 32 -30 0 -8 8 -14 17 -14 12 0 7 9 -17 30
-18 17 -41 30 -49 30 -9 0 -1 -8 17 -16z" />
    <path d="M4143 1648 c31 -11 33 -24 12 -64 -8 -16 -15 -36 -15 -44 0 -8 9 5
20 29 26 56 25 77 -2 85 -36 9 -46 6 -15 -6z" />
    <path d="M2675 1497 c-10 -19 -15 -40 -12 -48 3 -8 6 -5 6 9 1 13 12 34 26 47
14 15 19 25 11 25 -7 0 -21 -15 -31 -33z" />
    <path d="M2158 1323 c-7 -59 -92 -69 -123 -15 -15 26 -16 26 -9 2 18 -72 154
-53 154 21 0 29 -18 23 -22 -8z" />
    <path d="M1230 1331 c0 -20 51 -111 63 -111 6 0 3 8 -6 18 -9 9 -25 38 -36 62
-11 25 -21 39 -21 31z" />
    <path d="M3745 1276 c3 -16 15 -41 26 -54 25 -32 24 -27 -7 33 -18 36 -23 42
-19 21z" />
    <path d="M4160 1181 c0 -5 -19 -16 -42 -24 -24 -9 -35 -16 -25 -16 23 -1 77
26 77 39 0 6 -2 10 -5 10 -3 0 -5 -4 -5 -9z" />
  </g>
  <g transform="translate(0.000000,288.000000) scale(0.100000,-0.100000)" fill="#cdcdcd" stroke="none">
    <path d="M3440 1663 c0 -5 40 -7 90 -5 90 3 90 3 93 -260 2 -263 2 -263 5 5 2
267 2 267 -93 267 -52 0 -95 -3 -95 -7z" />
    <path d="M1722 1330 c-7 -14 -6 -168 1 -161 4 4 6 43 4 87 -1 43 -4 77 -5 74z" />
  </g>
  <g transform="translate(0.000000,288.000000) scale(0.100000,-0.100000)" fill="#f4f4f4" stroke="none">
    <path d="M3134 1285 c0 -82 2 -115 3 -72 2 43 2 110 0 150 -1 40 -3 5 -3 -78z" />
  </g>
  <g transform="translate(0.000000,288.000000) scale(0.100000,-0.100000)" fill="#d9d9d9" stroke="none">
    <path d="M7043 1580 c0 -47 2 -66 4 -42 2 23 2 61 0 85 -2 23 -4 4 -4 -43z" />
    <path d="M2984 1265 c0 -71 1 -99 3 -62 2 37 2 96 0 130 -2 34 -3 4 -3 -68z" />
  </g>
  <g transform="translate(0.000000,288.000000) scale(0.100000,-0.100000)" fill="#e7e7e7" stroke="none">
    <path d="M2794 1290 c0 -85 2 -120 3 -77 2 42 2 112 0 155 -1 42 -3 7 -3 -78z" />
  </g>
  <g transform="translate(0.000000,288.000000) scale(0.100000,-0.100000)" fill="#d4d6d6" stroke="none">
    <path d="M7043 1445 c0 -38 2 -53 4 -32 2 20 2 52 0 70 -2 17 -4 1 -4 -38z" />
    <path d="M7043 1235 c0 -33 2 -45 4 -27 2 18 2 45 0 60 -2 15 -4 0 -4 -33z" />
  </g>
  <g transform="translate(0.000000,288.000000) scale(0.100000,-0.100000)" fill="#ebebeb" stroke="none">
    <path d="M3444 1400 c0 -146 2 -205 3 -132 2 72 2 192 0 265 -1 72 -3 13 -3
-133z" />
  </g>
  <g transform="translate(0.000000,288.000000) scale(0.100000,-0.100000)" fill="#9ebbbc" stroke="none">
    <path d="M5413 1673 c26 -2 67 -2 90 0 23 2 2 3 -48 3 -49 0 -68 -1 -42 -3z" />
    <path d="M5872 1673 c72 -3 108 -8 111 -16 2 -7 3 -5 3 3 -1 12 -21 15 -111
16 -110 0 -110 0 -3 -3z" />
    <path d="M6245 1674 c70 -8 175 -8 175 -1 0 4 -46 6 -102 5 -57 0 -89 -3 -73
-4z" />
    <path d="M7083 1673 c20 -2 54 -2 75 0 20 2 3 4 -38 4 -41 0 -58 -2 -37 -4z" />
  </g>
  <g transform="translate(0.000000,288.000000) scale(0.100000,-0.100000)" fill="#d1d1d1" stroke="none">
    <path d="M3314 1320 c0 -102 2 -143 3 -92 2 50 2 134 0 185 -1 50 -3 9 -3 -93z" />
  </g>
  <g transform="translate(0.000000,288.000000) scale(0.100000,-0.100000)" fill="#dfe0e0" stroke="none" />
  <g transform="translate(0.000000,288.000000) scale(0.100000,-0.100000)" fill="#efefef" stroke="none" />
  <g transform="translate(0.000000,288.000000) scale(0.100000,-0.100000)" fill="#01bac2" stroke="none" />
  <g transform="translate(0.000000,288.000000) scale(0.100000,-0.100000)" fill="#7db3b5" stroke="none">
    <path d="M4998 1403 c29 -2 74 -2 100 0 26 2 2 3 -53 3 -55 0 -76 -1 -47 -3z" />
    <path d="M6693 1403 c20 -2 54 -2 75 0 20 2 3 4 -38 4 -41 0 -58 -2 -37 -4z" />
  </g>
  <g transform="translate(0.000000,288.000000) scale(0.100000,-0.100000)" fill="#e3e4e4" stroke="none" />
  <g transform="translate(0.000000,288.000000) scale(0.100000,-0.100000)" fill="#72afb2" stroke="none">
    <path d="M6818 1403 c18 -2 45 -2 60 0 15 2 0 4 -33 4 -33 0 -45 -2 -27 -4z" />
  </g>
  <g transform="translate(0.000000,288.000000) scale(0.100000,-0.100000)" fill="#bdbdbd" stroke="none">
    <path d="M4163 1250 c0 -41 2 -58 4 -37 2 20 2 54 0 75 -2 20 -4 3 -4 -38z" />
  </g>
  <g transform="translate(0.000000,288.000000) scale(0.100000,-0.100000)" fill="#51a8ac" stroke="none">
    <path d="M7214 1265 c0 -49 1 -71 3 -48 2 23 2 64 0 90 -2 26 -3 8 -3 -42z" />
  </g>
  <g transform="translate(0.000000,288.000000) scale(0.100000,-0.100000)" fill="#b1c3c4" stroke="none">
    <path d="M5544 1340 c0 -63 1 -89 3 -57 2 31 2 83 0 115 -2 31 -3 5 -3 -58z" />
  </g>
  <g transform="translate(0.000000,288.000000) scale(0.100000,-0.100000)" fill="#92b6b8" stroke="none" />
  <g transform="translate(0.000000,288.000000) scale(0.100000,-0.100000)" fill="#cbd3d4" stroke="none" />
  <g transform="translate(0.000000,288.000000) scale(0.100000,-0.100000)" fill="#01b2bb" stroke="none" />
  <g transform="translate(0.000000,288.000000) scale(0.100000,-0.100000)" fill="#8cb4b6" stroke="none" />
  <g transform="translate(0.000000,288.000000) scale(0.100000,-0.100000)" fill="#bbc9ca" stroke="none" />
  <g transform="translate(0.000000,288.000000) scale(0.100000,-0.100000)" fill="#a4bebf" stroke="none" />
  <g transform="translate(0.000000,288.000000) scale(0.100000,-0.100000)" fill="#abc1c2" stroke="none" />
  <g transform="translate(0.000000,288.000000) scale(0.100000,-0.100000)" fill="#b6c6c6" stroke="none" />
  <g transform="translate(0.000000,288.000000) scale(0.100000,-0.100000)" fill="#5baaae" stroke="none" />
  <g transform="translate(0.000000,288.000000) scale(0.100000,-0.100000)" fill="#10b4bc" stroke="none" />
  <g transform="translate(0.000000,288.000000) scale(0.100000,-0.100000)" fill="#83b3b5" stroke="none" />
  <g transform="translate(0.000000,288.000000) scale(0.100000,-0.100000)" fill="#3cadb3" stroke="none" />
  <g transform="translate(0.000000,288.000000) scale(0.100000,-0.100000)" fill="#69adb1" stroke="none" />
  <g transform="translate(0.000000,288.000000) scale(0.100000,-0.100000)" fill="#c3cecf" stroke="none" />
  <g transform="translate(0.000000,288.000000) scale(0.100000,-0.100000)" fill="#62aaad" stroke="none" />
  <g transform="translate(0.000000,288.000000) scale(0.100000,-0.100000)" fill="#16b2b9" stroke="none" />
  <g transform="translate(0.000000,288.000000) scale(0.100000,-0.100000)" fill="#1dabb2" stroke="none" />
  <g transform="translate(0.000000,288.000000) scale(0.100000,-0.100000)" fill="#32a8ae" stroke="none" />
  <g transform="translate(0.000000,288.000000) scale(0.100000,-0.100000)" fill="#4aa7ab" stroke="none" />
  <g transform="translate(0.000000,288.000000) scale(0.100000,-0.100000)" fill="#41a9ad" stroke="none" />
  <g transform="translate(0.000000,288.000000) scale(0.100000,-0.100000)" fill="#29b3ba" stroke="none" />
  <g transform="translate(0.000000,288.000000) scale(0.100000,-0.100000)" fill="#28acb1" stroke="none" />
  <g transform="translate(0.000000,288.000000) scale(0.100000,-0.100000)" fill="#11aeb5" stroke="none" />
  <g transform="translate(0.000000,288.000000) scale(0.100000,-0.100000)" fill="#39a6ab" stroke="none" />
  <g transform="translate(0.000000,288.000000) scale(0.100000,-0.100000)" fill="#0bc2cc" stroke="none" />
  <g transform="translate(0.000000,288.000000) scale(0.100000,-0.100000)" fill="#48adb3" stroke="none" />
  <g transform="translate(0.000000,288.000000) scale(0.100000,-0.100000)" fill="#56b0b4" stroke="none" />
  <g transform="translate(0.000000,288.000000) scale(0.100000,-0.100000)" fill="#25a6ac" stroke="none" />
</svg>