<?xml version="1.0" encoding="UTF-8"?>
<svg data-bbox="0.001 -0.001 425.847 56.006" preserveAspectRatio="none" xmlns:xlink="http://www.w3.org/1999/xlink" xmlns="http://www.w3.org/2000/svg" height="56" width="425.848" viewBox="0 0 425.848 56" data-type="shape">
    <g>
        <svg viewBox="2.56 -31.64 264.16 32.04" preserveAspectRatio="none" y="6.784" x="76" height="42.433" width="349.848">
            <path d="M18-31.64q3.04 0 5.26.8 2.22.8 4.5 2.64.48.36.64.74.16.38.16.9 0 .8-.58 1.32t-1.34.52q-.76 0-1.4-.52-1.64-1.4-3.2-2.02-1.56-.62-4.04-.62-3.12 0-5.74 1.64T8.1-21.78q-1.54 2.82-1.54 6.14 0 3.36 1.54 6.16 1.54 2.8 4.16 4.44Q14.88-3.4 18-3.4q3.84 0 7.36-2.64.68-.48 1.32-.48.76 0 1.26.54t.5 1.42q0 .84-.64 1.48Q23.48.4 18 .4q-4.28 0-7.82-2.12T4.6-7.52q-2.04-3.68-2.04-8.12 0-4.4 2.04-8.06t5.58-5.8q3.54-2.14 7.82-2.14zm25 9.6q3.16 0 5.66 1.42t3.92 3.94Q54-14.16 54-10.92q0 3.2-1.4 5.72-1.4 2.52-3.9 3.94T43 .16q-3.2 0-5.72-1.42-2.52-1.42-3.92-3.94t-1.4-5.72q0-3.24 1.4-5.76 1.4-2.52 3.92-3.94T43-22.04zm0 3.6q-2.04 0-3.66.96T36.8-14.8q-.92 1.72-.92 3.88t.92 3.86q.92 1.7 2.54 2.66 1.62.96 3.66.96t3.66-.96q1.62-.96 2.52-2.66.9-1.7.9-3.86t-.9-3.88q-.9-1.72-2.52-2.68-1.62-.96-3.66-.96zm40.08-3.64q3.48 0 5.62 2.28t2.14 6.36V-2q0 .88-.56 1.46T88.8.04q-.88 0-1.46-.58T86.76-2v-11.44q0-2.44-1.22-3.7-1.22-1.26-3.26-1.26-2.08 0-3.42 1.44-1.34 1.44-1.34 3.68V-2q0 .88-.56 1.46t-1.48.58q-.88 0-1.46-.58T73.44-2v-11.44q0-2.44-1.22-3.7Q71-18.4 68.96-18.4q-2.12 0-3.46 1.44-1.34 1.44-1.34 3.68V-2q0 .88-.56 1.46t-1.48.58q-.88 0-1.46-.58T60.08-2v-17.8q0-.92.58-1.48.58-.56 1.46-.56t1.44.54q.56.54.6 1.42 1.04-1.04 2.48-1.62 1.44-.58 3.12-.58 2.04 0 3.66.82t2.66 2.34q1.2-1.48 3-2.32 1.8-.84 4-.84zM98-19.84q0-.92.58-1.48.58-.56 1.46-.56.92 0 1.48.56.56.56.56 1.48v17.8q0 .88-.56 1.46t-1.48.58q-.88 0-1.46-.58T98-2.04v-17.8zm2.04-10.88q1.08 0 1.86.78t.78 1.86q0 1.08-.78 1.86t-1.86.78q-1.08 0-1.86-.78t-.78-1.86q0-1.08.78-1.86t1.86-.78zm19.36 8.68q4.72 0 7.84 3.6.4.44.4 1.04 0 .88-.88 1.48-.4.28-.92.28-.92 0-1.56-.72-1-1.08-2.18-1.58-1.18-.5-2.7-.5-3.08 0-5 2.06t-1.92 5.46q0 2.16.9 3.86.9 1.7 2.52 2.66 1.62.96 3.7.96 2.72 0 4.4-1.4.76-.56 1.48-.56.56 0 1.04.36.76.64.76 1.44 0 .6-.48 1.08-2.88 2.68-7.2 2.68-3.16 0-5.68-1.44-2.52-1.44-3.94-3.98t-1.42-5.66q0-3.2 1.38-5.74t3.86-3.96q2.48-1.42 5.6-1.42zm25.2-9.56q3.44 0 5.8 1.4t4 4q.48.76.48 1.44 0 .88-.8 1.44-.44.28-1.04.28-.6 0-1.12-.3-.52-.3-.8-.82-1.08-1.8-2.7-2.74-1.62-.94-4.1-.94-3.04 0-4.92 1.18t-1.88 3.42q0 2.08 1.68 3.48t6 1.84q4.8.48 7.44 2.9 2.64 2.42 2.64 6.38 0 2.88-1.56 4.94-1.56 2.06-4.14 3.08Q147 .4 144.04.4q-3.88 0-7.06-1.76-3.18-1.76-4.38-4.6-.2-.48-.2-.8 0-.6.44-1.06.44-.46 1.2-.62.12-.04.4-.04.64 0 1.22.38t.86 1.02q.72 1.56 2.84 2.64t4.68 1.08q3 0 5.08-1.38t2.08-3.78q0-2.28-1.76-3.9t-5.36-1.98q-4.96-.48-7.8-2.9t-2.84-6.06q0-2.56 1.46-4.42 1.46-1.86 4-2.84 2.54-.98 5.7-.98zm36.28 20.32q0 .76-.52 1.26t-1.32.5h-15.2q.44 2.8 2.54 4.52 2.1 1.72 5.14 1.72 1.2 0 2.5-.44t2.14-1.08q.56-.44 1.32-.44t1.2.4q.72.6.72 1.36 0 .72-.64 1.2-1.36 1.08-3.38 1.76-2.02.68-3.86.68-3.28 0-5.88-1.42t-4.06-3.94q-1.46-2.52-1.46-5.72 0-3.2 1.38-5.74t3.84-3.96q2.46-1.42 5.58-1.42 3.08 0 5.32 1.36t3.44 3.8q1.2 2.44 1.2 5.6zm-9.96-7.32q-2.92 0-4.74 1.6-1.82 1.6-2.3 4.28h13.32q-.36-2.68-2-4.28-1.64-1.6-4.28-1.6zm25.88-3.52q2.12 0 3.32.64 1.2.64 1.2 1.6 0 .28-.04.4-.36 1.28-1.6 1.28-.2 0-.6-.08-1.6-.28-2.6-.28-2.88 0-4.64 1.32-1.76 1.32-1.76 3.56V-2q0 .96-.5 1.48t-1.5.52q-.96 0-1.48-.5t-.52-1.5v-17.88q0-.96.52-1.48t1.48-.52q2 0 2 2v.76q1.2-1.4 2.96-2.2 1.76-.8 3.76-.8zm25.56.52q.52.24.8.66.28.42.28.94 0 .36-.2.76l-8.48 17.88q-.6 1.32-1.84 1.32-.68 0-1.12-.3-.44-.3-.8-1.02l-8.48-17.88q-.16-.32-.16-.72 0-1.08 1.12-1.64.36-.2.84-.2t.92.26q.44.26.68.74l6.96 15 6.88-15q.24-.48.7-.74.46-.26.98-.26t.92.2zm23.92 10.32q0 .76-.52 1.26t-1.32.5h-15.2q.44 2.8 2.54 4.52 2.1 1.72 5.14 1.72 1.2 0 2.5-.44t2.14-1.08q.56-.44 1.32-.44t1.2.4q.72.6.72 1.36 0 .72-.64 1.2-1.36 1.08-3.38 1.76-2.02.68-3.86.68-3.28 0-5.88-1.42t-4.06-3.94q-1.46-2.52-1.46-5.72 0-3.2 1.38-5.74t3.84-3.96q2.46-1.42 5.58-1.42 3.08 0 5.32 1.36t3.44 3.8q1.2 2.44 1.2 5.6zm-9.96-7.32q-2.92 0-4.74 1.6-1.82 1.6-2.3 4.28h13.32q-.36-2.68-2-4.28-1.64-1.6-4.28-1.6zm25.88-3.52q2.12 0 3.32.64 1.2.64 1.2 1.6 0 .28-.04.4-.36 1.28-1.6 1.28-.2 0-.6-.08-1.6-.28-2.6-.28-2.88 0-4.64 1.32-1.76 1.32-1.76 3.56V-2q0 .96-.5 1.48t-1.5.52q-.96 0-1.48-.5t-.52-1.5v-17.88q0-.96.52-1.48t1.48-.52q2 0 2 2v.76q1.2-1.4 2.96-2.2 1.76-.8 3.76-.8z"/>
        </svg>
        <svg viewBox="0 0 128 128" preserveAspectRatio="none" height="56" width="56">
            <g>
                <path d="M20 46.97a2 2 0 1 1-4 0 2 2 0 0 1 4 0z"/>
                <path d="M15 49.97a2 2 0 1 1-4 0 2 2 0 0 1 4 0z"/>
                <path d="M127.92 82.32A77.58 77.58 0 0 0 121.86 55a10 10 0 0 0 2.14-6.94c-.31-3.78-2.82-7.17-6.73-9.08a11 11 0 0 0-5.68-1l-.73-.84a28.57 28.57 0 0 1 13.39 1.62 2 2 0 0 0 1.58-3.68A31.93 31.93 0 0 0 109 33.44a21.74 21.74 0 0 1 12.71-2.31 2 2 0 0 0 .67-3.94 25.48 25.48 0 0 0-15 2.54 16.35 16.35 0 0 1 8.87-4.79 2 2 0 0 0-.51-4c-.36 0-8.57 1.18-13.17 8.51l-1-.78c1.91-5 3.43-11.55 1.68-17.25-1.35-4.41-4.42-7.7-9.11-9.75C94 1.63 77.45-5.56 64 10.21 50.59-5.58 34 1.63 33.9 1.7c-4.7 2.06-7.77 5.34-9.13 9.76-1.75 5.7-.23 12.22 1.68 17.25l-1 .78C20.82 22.16 12.61 21 12.25 21a2 2 0 0 0-.51 4 16.34 16.34 0 0 1 8.87 4.79 25.45 25.45 0 0 0-15-2.54 2 2 0 0 0 .68 3.94 21.47 21.47 0 0 1 12.72 2.31 31.94 31.94 0 0 0-16.8 1.63 2 2 0 0 0 1.58 3.67 28.58 28.58 0 0 1 13.39-1.62l-.73.84a11 11 0 0 0-5.68 1c-3.9 1.91-6.42 5.3-6.73 9.08a10 10 0 0 0 2.1 6.9A77.57 77.57 0 0 0 .08 82.32C-.57 95.07 2.88 105.4 10.33 113c12.41 12.73 32.78 15 45.49 15h14.73c12.06.17 34.22-1.55 47.27-15.1 7.34-7.63 10.74-17.9 10.1-30.58zM107.1 39a19.76 19.76 0 0 0-6.41 3.77 44.88 44.88 0 0 0-2.87-6.27c.44-.74 1.24-2.16 2.13-4a53.6 53.6 0 0 1 7.15 6.5zM74.57 97.75c-1.13-2.91-4.41-5.1-8.57-5.63V30.51A16.82 16.82 0 0 1 77.09 26C89.72 26 100 42.12 100 62S89.72 98 77.09 98a14.14 14.14 0 0 1-2.52-.25zM50.91 98C38.28 98 28 81.83 28 62s10.28-36 22.91-36A16.82 16.82 0 0 1 62 30.51v61.6c-4.17.54-7.45 2.72-8.57 5.63a14.14 14.14 0 0 1-2.52.26zm6.09 2c0-1.89 2.88-4 7-4s7 2.11 7 4-2.87 4-7 4-7-2.12-7-4zm38.37-67.35C90.57 26 84.14 22 77.09 22a19 19 0 0 0-7.53 1.58C76.76 11.47 86.2 7.47 89.85 6.33a69.29 69.29 0 0 0-7.57 10.61A2 2 0 1 0 85.72 19c4.91-8.22 8.54-11.47 8.6-11.52a2 2 0 0 0 .19-.2c0 5.06-.92 12.76-3.42 15.29a2 2 0 1 0 2.84 2.82c3.24-3.31 4.2-10.39 4.47-15.07a11 11 0 0 1 1 2.3c2.12 6.9-1.86 15.9-4.03 20.03zM61.28 13.19l1.17 1.49a2 2 0 0 0 1.59.77 2 2 0 0 0 1.58-.79l1.08-1.43C73 5.59 79.91 3.87 85 3.93c-5.67 2.6-14.44 8.42-20.76 21a47.57 47.57 0 0 0-20-21c4.92.23 11.26 2.23 17.04 9.26zm-32.68-.56a10.78 10.78 0 0 1 1.46-3c.21 4.66 1.1 12.3 4.52 15.75a2 2 0 1 0 2.84-2.82C34.92 20 34 12.32 34 7.26a2 2 0 0 0 .19.2s3.68 3.28 8.6 11.53a2 2 0 1 0 3.43-2.05A64.94 64.94 0 0 0 37.89 5.5a42.52 42.52 0 0 1 21.23 18.36A19.15 19.15 0 0 0 50.91 22c-7.05 0-13.48 4-18.28 10.65-2.17-4.12-6.15-13.1-4.03-20.02zM28 32.45c.89 1.88 1.7 3.31 2.13 4a44.87 44.87 0 0 0-2.87 6.27A19.75 19.75 0 0 0 20.9 39a53.59 53.59 0 0 1 7.1-6.55zm86.89 77.67c-6.19 6.42-14.75 9.95-23.15 11.84 1.4-.68 2.81-1.41 4.21-2.23a2 2 0 0 0-2-3.46c-29.67 17.19-59.69.18-60 0a2 2 0 0 0-2 3.46 49.25 49.25 0 0 0 4.9 2.27c-8.48-1.84-17.34-5.32-23.65-11.8-6.65-6.82-9.71-16.16-9.12-27.77v-.1A74.52 74.52 0 0 1 9.3 57.82a2 2 0 0 0 1.89-3.47 6.72 6.72 0 0 1-3.17-6c.19-2.39 1.83-4.51 4.5-5.81 3.85-1.88 10.55.89 13.42 4.52A57.11 57.11 0 0 0 24 62c0 22 12.07 40 26.91 40a17.57 17.57 0 0 0 2.38-.17 6.64 6.64 0 0 0 .75 1.6c-21.37 5.35-32.3-4-37.78-13.39-2.26-3.86-3.15-9.9-3.26-11.67a32.23 32.23 0 0 1 8.82-23.91 2 2 0 0 0-2.68-3c-.44.4-10.85 10-10.13 27 .1 2.39 1.19 9.1 3.78 13.52C17 99.14 25.74 109 42.41 109a54.44 54.44 0 0 0 15.25-2.4 14.78 14.78 0 0 0 12.67 0 54.43 54.43 0 0 0 15.26 2.4c16.68 0 25.45-9.82 29.6-16.91 2.59-4.41 3.68-11.13 3.78-13.52.72-17.06-9.69-26.65-10.13-27a2 2 0 0 0-2.68 3 32.22 32.22 0 0 1 8.84 23.8c-.07 1.77-1 7.82-3.23 11.66-5.48 9.35-16.41 18.74-37.78 13.39a6.64 6.64 0 0 0 .75-1.6 17.57 17.57 0 0 0 2.38.17C91.93 102 104 84 104 62a57.11 57.11 0 0 0-1.94-14.88c2.88-3.63 9.57-6.4 13.42-4.52 2.66 1.3 4.3 3.42 4.5 5.81a6.72 6.72 0 0 1-3.17 6 2 2 0 0 0 1.89 3.48 74.92 74.92 0 0 1 5.22 24.56v.1c.6 11.45-2.43 20.76-8.98 27.56z"/>
                <path d="M112 46.97a2 2 0 1 1-4 0 2 2 0 0 1 4 0z"/>
                <path d="M117 49.97a2 2 0 1 1-4 0 2 2 0 0 1 4 0z"/>
                <path d="M58 82c0-4.64-2.52-8-6-8s-6 3.37-6 8 2.52 8 6 8 6-3.38 6-8zm-6 4c-1.1 0-2-1.79-2-4s.9-4 2-4 2 1.79 2 4-.9 4-2 4z"/>
                <path d="M82 82c0-4.64-2.52-8-6-8s-6 3.37-6 8 2.52 8 6 8 6-3.38 6-8zm-6 4c-1.1 0-2-1.79-2-4s.9-4 2-4 2 1.79 2 4-.9 4-2 4z"/>
                <path d="M18.61 104.08a4.16 4.16 0 0 1-2.68-2.62 2 2 0 0 0-3.87 1 8.14 8.14 0 0 0 5.33 5.41 2 2 0 0 0 1.22-3.81z"/>
                <path d="M114.5 100.05a2 2 0 0 0-2.44 1.44 4.14 4.14 0 0 1-2.67 2.6 2 2 0 0 0-1.3 2.51 2 2 0 0 0 2.51 1.3 8.14 8.14 0 0 0 5.33-5.41 2 2 0 0 0-1.43-2.44z"/>
            </g>
        </svg>
    </g>
</svg>
