<?xml version="1.0" encoding="UTF-8"?>
<svg data-bbox="3.632 0.708 52.732 58.582" viewBox="0 0 60 60" xmlns="http://www.w3.org/2000/svg" data-type="color">
    <g>
        <path d="M30.41 37.279l-.001.18h-.181l.001-.182.181.002z" fill="#5B2104" data-color="1"/>
        <path d="M31.31 38.008c.424.14.121.449 0 0z" fill="#5B2104" data-color="1"/>
        <path d="M9.7 38.791a.456.456 0 0 0-.268-.096c.018-.094.181-.057.182-.18.07-.012.082.035.087.094l-.001.182z" fill="#000000" data-color="2"/>
        <path d="M48.364 46.74c.023.051.059.104.094.156-.023.012-.053-.023-.094-.156z" fill="#007400" data-color="3"/>
        <path d="M45.297 47.963c.13-.256.373.148.336.428-.216-.029-.202-.275-.359-.363.004-.024.016-.048.023-.065z" fill="#5B2104" data-color="1"/>
        <path d="M33.789 48.324c2.815-.795 8.274-1.043 11.391-.297a.594.594 0 0 0 .048-.098l.069.033c-.007.018-.019.041-.023.064.157.088.144.334.359.363v.064c-.421.027-.952.135-1.36.109-3.703-.187-6.677-.017-10.484-.238z" fill="#5B2104" data-color="1"/>
        <path d="M30.486 7.987c3.433 1.273 5.569 4.137 7.647 6.912 1.417 1.897 2.801 3.946 3.58 6.26.15.229-.108.658.264.812.565.143.318-.53.547-.721.72-1.64.401-5.083-.229-6.963-.339-.999-.993-1.767-1.251-2.538 1.221.532 2.271 1.453 3.421 2.282 1.424 1.022 2.759 2.161 4.052 3.371.79.739 1.565 1.507 2.243 2.542.81 1.235 1.432 2.616 2.059 4.076 1.146 2.666 2.597 6.079 2.292 10.323-.101 1.428-.587 2.865-.927 4.24-.221.896-.358 1.607-.65 2.621-.119.418-.175.996-.549 1.262-.054 2.326-1.072 4.1-1.028 6.684-.478-.271-.848-.707-1.354-1.094-.464-.357-1.104-.611-1.347-1.092-.462-.877-.437-3.215-.431-4.34.01-1.727.443-4.162.578-6.418.019-.246-.102-.572-.083-.811.02-.252.178-.414.185-.635a45.162 45.162 0 0 0-.073-3.617c-.14-2.269-.25-5.395-1.312-7.238-.021-.344-.148-.571-.451-.637-.402.062-.344.913-.006 1.002 1.01 6.305-1.089 13.319-1.378 20.059-.883-.477-1.497-1.215-2.609-1.461-.934-1.002-2.266-1.598-3.516-2.281-.271-.539-.858-.85-1.17-1.365-.682-1.117-.935-2.875-1.147-4.434-.421-3.047-.311-5.967-.947-8.956-.386-1.816-.695-3.905-1.599-5.165-.127-.175-.324-.333-.445-.545-.416-.696-.417-1.454-1.256-1.72-.708.537.039 1.347.258 1.808.589 1.24.756 2.361 1.062 4.164.7 4.133.261 8.667.562 13.113-1.909-.588-3.563-1.98-5.318-3.104a19.097 19.097 0 0 1-3.419-2.822c-.249-.26-.439-.576-.719-.909-.892-1.049-1.744-2.92-1.961-4.711-.034-.256.101-.442.091-.635-.017-.314-.236-.607-.263-.993-.082-1.02-.007-2.035-.076-3.074a12.37 12.37 0 0 0-.35-2.265c-.69-2.738-1.368-6.562-2.931-8.786-.058-.077-.151.039-.181-.089-.074-.263-.362-.755-.812-.728-.329.668.361 1.237.626 1.81.294.656.354 1.391.618 2.08.195.521.607.943.809 1.451.098.257.078.619.176.91.086.264.301.486.357.726.627 2.639.307 5.677-.229 8.496-.318-.294-.438-.796-.717-1.183-.15-.205-.359-.33-.539-.545-.307-.363-.602-.767-.902-1.177-.557-.767-1.356-1.495-2.157-2.182-.54-.47-1.347-1.104-2.07-1.01-.087.788.738 1.428 1.16 2.089.45.704.961 1.253 1.436 1.904.139.192.12.449.271.636.127.165.319.194.447.364.677.902 1.184 2.077 1.797 2.991-1.51-.201-3.173.105-4.975.066-1.184-.024-2.377-.404-3.613-.475-1.416-.078-2.33-.292-3.166.076.037.507.685.533.993.634 3.416 1.162 7.364 2.216 11.013 2.504.432-.008 1.042.362 1.626.191.277.549.694.967 1.077 1.452.37.469.671 1.008 1.076 1.453 1.096 1.213 2.419 2.229 3.509 3.453-1.016.211-2.097-.5-3.251-.467-.246.006-.631.137-.904.176-.66.084-1.196.074-1.63.439-1.676.369-3.341.846-4.715 1.514-.239.121-.387.312-.633.445-.591.33-1.448.518-1.813 1.168.021.188.244.176.266.363 1.797-.014 3.451-.861 5.254-.967.304-.018.606.096.903.098.606-.002 1.19-.221 1.81-.266 1.336-.072 2.74.039 4.063.117 1.755.109 3.315.479 5.062.844 3.69 2.371 7.14 4.986 10.899 7.293-1.938.281-3.777-.15-5.697-.033-1.919.119-3.783.883-5.79 1.055-1.622.135-3.312-.02-5.068.059-.221.926 1.272.834 1.896.914.787.104 1.708.242 2.437.287 1.48.078 3.149-.109 4.794.027.273.023.559.172.814.186.204.006.311-.092.631-.092 1.049.006 2.142-.172 3.074-.162.729.01 1.475.158 2.168.191.951.053 1.965-.029 2.804.109.548.092 1.282.201 1.442.82-2.409.074-4.584 1.135-6.793 1.861-1.963.65-5.466 1.307-8.407.857-1.946-.295-3.889-1.305-5.781-1.838-.646-.186-1.34-.207-1.985-.375-.688-.172-1.333-.619-2.072-.734-.723-.113-1.418.039-2.174-.191.805-1.053 2.552-1.766 3.898-1.699.251-1.135-1.305-1.232-2.161-1.459-.926-.238-2.103-.473-2.888-.826-.582-.266-1.203-.783-1.801-1.189-.621-.422-1.343-.758-1.801-1.182-.615-.568-1.142-1.359-1.71-1.998-1.02-1.154-1.83-2.174-3.507-2.643.4-.82 1.969-.695 2.801-.346.298-.197-.014-.701.186-.902-.984-.164-1.454-.656-2.162-1.277-.4-.359-.894-.682-1.167-1.006-2.241-2.596-2.43-7.553-3.922-10.867.531-.178 1.084.157 1.627.009.104-.897-.533-1.658-.709-2.448-.318-1.471-.24-3.003-.243-4.607-.004-.234-.091-.479-.089-.723.129-4.809 1.523-9.932 1.162-14.371.872.465 1.544 1.221 2.252 1.914.121.117.144.355.271.456.146.112.31.048.448.184.533.515.927 1.247 1.437 1.814.261.288.568.517.812.816.313.392.474.819.898 1.09.267.169.604.376.9.546.285.172.586.453.902.368.397-.237-.154-.643.005-.811.259-1.555.588-3.047.569-4.878.279.065.174.064.448.002.076.018.093.087.181.088a.414.414 0 0 0-.089.274c.682.004 1.5.679 2.433.917.372.09.758-.007 1.084.094.419.131.971.501 1.447.731 1.355.674 2.522 1.642 3.689 2.552.812.635 1.607 1.251 2.339 1.915.761.687 1.438 1.402 2.07 2.087.858-.193 1.387-1.928 1.37-3.065-.002-.497-.181-.941-.26-1.356z" fill="#A34714" data-color="4"/>
        <path d="M30.486 7.987c3.433 1.273 5.569 4.137 7.647 6.912 1.417 1.897 2.801 3.946 3.58 6.26.15.229-.108.658.264.812.565.143.318-.53.547-.721.72-1.64.401-5.083-.229-6.963-.339-.999-.993-1.767-1.251-2.538 1.221.532 2.271 1.453 3.421 2.282 1.424 1.022 2.759 2.161 4.052 3.371.79.739 1.565 1.507 2.243 2.542.81 1.235 1.432 2.616 2.059 4.076 1.146 2.666 2.597 6.079 2.292 10.323-.101 1.428-.587 2.865-.927 4.24-.221.896-.358 1.607-.65 2.621-.119.418-.175.996-.549 1.262-.054 2.326-1.072 4.1-1.028 6.684-.478-.271-.848-.707-1.354-1.094-.464-.357-1.104-.611-1.347-1.092-.462-.877-.437-3.215-.431-4.34.01-1.727.443-4.162.578-6.418.019-.246-.102-.572-.083-.811.02-.252.178-.414.185-.635a45.162 45.162 0 0 0-.073-3.617c-.14-2.269-.25-5.395-1.312-7.238-.021-.344-.148-.571-.451-.637-.402.062-.344.913-.006 1.002 1.01 6.305-1.089 13.319-1.378 20.059-.883-.477-1.497-1.215-2.609-1.461-.934-1.002-2.266-1.598-3.516-2.281-.271-.539-.858-.85-1.17-1.365-.682-1.117-.935-2.875-1.147-4.434-.421-3.047-.311-5.967-.947-8.956-.386-1.816-.695-3.905-1.599-5.165-.127-.175-.324-.333-.445-.545-.416-.696-.417-1.454-1.256-1.72-.708.537.039 1.347.258 1.808.589 1.24.756 2.361 1.062 4.164.7 4.133.261 8.667.562 13.113-1.909-.588-3.563-1.98-5.318-3.104a19.097 19.097 0 0 1-3.419-2.822c-.249-.26-.439-.576-.719-.909-.892-1.049-1.744-2.92-1.961-4.711-.034-.256.101-.442.091-.635-.017-.314-.236-.607-.263-.993-.082-1.02-.007-2.035-.076-3.074a12.37 12.37 0 0 0-.35-2.265c-.69-2.738-1.368-6.562-2.931-8.786-.058-.077-.151.039-.181-.089-.074-.263-.362-.755-.812-.728-.329.668.361 1.237.626 1.81.294.656.354 1.391.618 2.08.195.521.607.943.809 1.451.098.257.078.619.176.91.086.264.301.486.357.726.627 2.639.307 5.677-.229 8.496-.318-.294-.438-.796-.717-1.183-.15-.205-.359-.33-.539-.545-.307-.363-.602-.767-.902-1.177-.557-.767-1.356-1.495-2.157-2.182-.54-.47-1.347-1.104-2.07-1.01-.087.788.738 1.428 1.16 2.089.45.704.961 1.253 1.436 1.904.139.192.12.449.271.636.127.165.319.194.447.364.677.902 1.184 2.077 1.797 2.991-1.51-.201-3.173.105-4.975.066-1.184-.024-2.377-.404-3.613-.475-1.416-.078-2.33-.292-3.166.076.037.507.685.533.993.634 3.416 1.162 7.364 2.216 11.013 2.504.432-.008 1.042.362 1.626.191.277.549.694.967 1.077 1.452.37.469.671 1.008 1.076 1.453 1.096 1.213 2.419 2.229 3.509 3.453-1.016.211-2.097-.5-3.251-.467-.246.006-.631.137-.904.176-.66.084-1.196.074-1.63.439-1.676.369-3.341.846-4.715 1.514-.239.121-.387.312-.633.445-.591.33-1.448.518-1.813 1.168.021.188.244.176.266.363 1.797-.014 3.451-.861 5.254-.967.304-.018.606.096.903.098.606-.002 1.19-.221 1.81-.266 1.336-.072 2.74.039 4.063.117 1.755.109 3.315.479 5.062.844 3.69 2.371 7.14 4.986 10.899 7.293-1.938.281-3.777-.15-5.697-.033-1.919.119-3.783.883-5.79 1.055-1.622.135-3.312-.02-5.068.059-.221.926 1.272.834 1.896.914.787.104 1.708.242 2.437.287 1.48.078 3.149-.109 4.794.027.273.023.559.172.814.186.204.006.311-.092.631-.092 1.049.006 2.142-.172 3.074-.162.729.01 1.475.158 2.168.191.951.053 1.965-.029 2.804.109.548.092 1.282.201 1.442.82-2.409.074-4.584 1.135-6.793 1.861-1.963.65-5.466 1.307-8.407.857-1.946-.295-3.889-1.305-5.781-1.838-.646-.186-1.34-.207-1.985-.375-.688-.172-1.333-.619-2.072-.734-.723-.113-1.418.039-2.174-.191.805-1.053 2.552-1.766 3.898-1.699.251-1.135-1.305-1.232-2.161-1.459-.926-.238-2.103-.473-2.888-.826-.582-.266-1.203-.783-1.801-1.189-.621-.422-1.343-.758-1.801-1.182-.615-.568-1.142-1.359-1.71-1.998-1.02-1.154-1.83-2.174-3.507-2.643.4-.82 1.969-.695 2.801-.346.298-.197-.014-.701.186-.902-.984-.164-1.454-.656-2.162-1.277-.4-.359-.894-.682-1.167-1.006-2.241-2.596-2.43-7.553-3.922-10.867.531-.178 1.084.157 1.627.009.104-.897-.533-1.658-.709-2.448-.318-1.471-.24-3.003-.243-4.607-.004-.234-.091-.479-.089-.723.129-4.809 1.523-9.932 1.162-14.371.872.465 1.544 1.221 2.252 1.914.121.117.144.355.271.456.146.112.31.048.448.184.533.515.927 1.247 1.437 1.814.261.288.568.517.812.816.313.392.474.819.898 1.09.267.169.604.376.9.546.285.172.586.453.902.368.397-.237-.154-.643.005-.811.259-1.555.588-3.047.569-4.878.279.065.174.064.448.002.076.018.093.087.181.088a.414.414 0 0 0-.089.274c.682.004 1.5.679 2.433.917.372.09.758-.007 1.084.094.419.131.971.501 1.447.731 1.355.674 2.522 1.642 3.689 2.552.812.635 1.607 1.251 2.339 1.915.761.687 1.438 1.402 2.07 2.087.858-.193 1.387-1.928 1.37-3.065-.002-.497-.181-.941-.26-1.356z" fill="#FFFFFF" opacity=".5" data-color="5"/>
        <path d="M30.409 37.459l.001-.18-.181-.002-.001.182h.181zm.901.549c.121.449.424.14 0 0zm13.918 9.922c.312-.723-.63-1.148-1.03-1.441-1.65-1.199-3.369-2.248-4.955-3.377-2.214-1.568-4.607-3.133-6.938-4.469-.273-.066-.327.098-.543.09-1.663-.803-3.692-.768-5.873-.85-2.163-.076-4.969.002-7.776.594.2-.355.73-.375 1.175-.537 1.175-.424 2.799-.977 4.078-1.422.822.16 1.528-.15 2.263-.082.903.088 1.712.471 2.528.557.56.066 1.057-.121 1.627.008-.088-.938-1.095-1.375-1.709-1.998-1.815-1.84-3.98-3.672-5.208-6.174-.374.119-.611-.226-.725.175-1.123-.361-2.522-.41-4.066-.651a43.758 43.758 0 0 1-5.323-1.208c1.184.002 2.552.417 4.156.386.717-.014 1.301-.185 2.17-.169.25.007.483.084.723.098.344.014 1.062-.035 1.357.095.361.16.469.633.807.727-.288-.486-.189-.468.006-.991-.021-.339-.383-.346-.539-.551-.731-1.637-1.838-2.961-2.868-4.354-.342-.462-.525-1.006-.99-1.358.218-.256 1.105.532 1.354.818.377.439.723 1.117 1.169 1.633.747.891 1.397 2.404 2.332 3.179.456-.259.168-.815.188-1.265.048-1.281.382-2.621.471-3.88.385 2.038.059 5.131.956 7.324.224.561.635 1.192.981 1.726.988 1.504 2.451 2.813 3.955 3.907 2.108 1.533 4.415 3.045 6.673 3.926.249.27.493.4.81.186.119-.529-.281-.893-.353-1.629-.099-1.027-.028-2.223-.069-3.348-.045-1.184.02-2.223.021-3.616.002-2.432-.082-4.1-.42-6.061-.022-.159.088-.18.093-.087l-.002.367c1.551 4.33.48 10.057 2.356 14.469.26.621.753 1.125.808 1.725 2.554 1.945 5.434 3.186 7.836 5.381.556-.26.267-.668.275-1.176.049-2.426.365-4.938.676-7.229.279-2.08.643-4.387.848-6.684.031-.32-.17-.835.187-1.084-.043 1.481.122 3.163.066 4.883-.055 1.549-.292 3.205-.389 4.785-.146 2.268-.321 4.459-.035 6.332.051.338.188.816.175 1.086-.006.023-.029.191-.076.203-.035-.053-.07-.105-.094-.156.041.133.07.168.094.156.149.205.37.439.34.701.446.371.993.66 1.439 1.094.128.121.231.34.359.451.268.229.64.324.901.547.231.205.399.521.632.727.881.791 1.792 1.59 2.697 2.459.073.408-.435.592-.642.992-.519 1.023-.376 2.553-.469 3.613a97.552 97.552 0 0 0-5.119-6.543c-.752-.883-1.279-1.598-2.244-2.18-.059-.031-.308-.271-.278-.271a1.761 1.761 0 0 0-.442-.031v-.064c.037-.279-.206-.684-.336-.428l-.071-.036z" fill="#5B2104" data-color="1"/>
        <path d="M55.457 53.875c.218.758.01 1.404-.193 2.168-.178.646-.258 1.266-.645 1.623.015-.576-.155-1.33-.081-2.082.073-.693.271-1.619.919-1.709z" fill="#5B2104" data-color="1"/>
        <path d="M9.7 38.791l.001-.182c-.005-.059-.017-.105-.087-.094-.001.123-.164.086-.182.18a.454.454 0 0 1 .268.096zm45.757 15.084c-.648.09-.846 1.016-.919 1.709-.074.752.096 1.506.081 2.082.387-.357.467-.977.645-1.623.203-.764.411-1.41.193-2.168zM18.111 38.477c2.808-.592 5.613-.67 7.776-.594 2.181.082 4.21.047 5.873.85.216.008.27-.156.543-.09 2.331 1.336 4.725 2.9 6.938 4.469 1.586 1.129 3.305 2.178 4.955 3.377.4.293 1.343.719 1.03 1.441a.684.684 0 0 1-.048.098c-3.116-.746-8.575-.498-11.391.297 3.807.221 6.781.051 10.483.24.408.025.939-.082 1.36-.109.175-.004.326.002.442.031-.029 0 .22.24.278.271.965.582 1.492 1.297 2.244 2.18a97.552 97.552 0 0 1 5.119 6.543c.093-1.061-.05-2.59.469-3.613.207-.4.715-.584.642-.992-.905-.869-1.816-1.668-2.697-2.459-.232-.205-.4-.521-.632-.727-.262-.223-.634-.318-.901-.547-.128-.111-.231-.33-.359-.451-.446-.434-.993-.723-1.439-1.094.03-.262-.19-.496-.34-.701.047-.012.07-.18.076-.203.013-.27-.124-.748-.175-1.086-.286-1.873-.111-4.064.035-6.332.097-1.58.334-3.236.389-4.785.056-1.721-.109-3.402-.066-4.883-.356.249-.155.764-.187 1.084-.205 2.297-.568 4.604-.848 6.684-.311 2.291-.627 4.803-.676 7.229-.009.508.28.916-.275 1.176-2.402-2.195-5.282-3.436-7.836-5.381-.055-.6-.548-1.104-.808-1.725-1.876-4.412-.806-10.139-2.356-14.469l.002-.367c-.005-.093-.115-.071-.093.087.338 1.961.422 3.629.42 6.061-.001 1.393-.065 2.432-.021 3.616.041 1.125-.029 2.32.069 3.348.071.736.472 1.1.353 1.629-.316.215-.561.084-.81-.186-2.258-.881-4.564-2.393-6.673-3.926-1.504-1.094-2.967-2.402-3.955-3.907-.347-.533-.758-1.165-.981-1.726-.897-2.192-.571-5.286-.956-7.324-.089 1.259-.423 2.599-.471 3.88-.021.449.268 1.005-.188 1.265-.935-.775-1.585-2.288-2.332-3.179-.446-.516-.792-1.194-1.169-1.633-.249-.287-1.137-1.074-1.354-.818.465.353.648.896.99 1.358 1.03 1.393 2.137 2.718 2.868 4.354.156.205.518.212.539.551-.195.523-.294.505-.006.991-.338-.094-.445-.567-.807-.727-.296-.13-1.014-.082-1.357-.095-.239-.013-.473-.091-.723-.098-.869-.016-1.453.156-2.17.169-1.604.032-2.973-.384-4.156-.386a43.8 43.8 0 0 0 5.323 1.208c1.544.241 2.943.29 4.066.651.113-.401.351-.057.725-.175 1.228 2.502 3.393 4.334 5.208 6.174.614.623 1.621 1.061 1.709 1.998-.57-.129-1.067.059-1.627-.008-.816-.086-1.625-.469-2.528-.557-.734-.068-1.44.242-2.263.082-1.279.445-2.903.998-4.078 1.422-.441.164-.971.183-1.172.539zm26.354-24.446c-1.149-.829-2.2-1.75-3.421-2.282.258.771.912 1.539 1.251 2.538.631 1.881.949 5.324.229 6.963-.229.191.019.864-.547.721-.372-.154-.113-.583-.264-.812-.779-2.314-2.163-4.363-3.58-6.26-2.078-2.775-4.215-5.639-7.647-6.912.079.415.258.859.261 1.355.017 1.137-.512 2.872-1.37 3.065-.632-.685-1.31-1.4-2.07-2.087-.731-.663-1.526-1.28-2.339-1.915-1.167-.91-2.334-1.878-3.689-2.552-.477-.229-1.028-.6-1.447-.731-.326-.101-.712-.004-1.084-.094-.933-.238-1.751-.913-2.433-.917a.414.414 0 0 1 .089-.274c-.088 0-.104-.07-.181-.088-.274.062-.169.062-.448-.002.019 1.831-.311 3.323-.569 4.878-.159.168.393.573-.005.811-.316.085-.617-.196-.902-.368a22.497 22.497 0 0 1-.9-.546c-.425-.271-.585-.698-.898-1.09-.243-.299-.551-.529-.812-.816-.51-.568-.903-1.3-1.437-1.814-.14-.135-.304-.072-.449-.184-.127-.1-.15-.339-.271-.455-.708-.693-1.38-1.449-2.252-1.914.36 4.439-1.033 9.562-1.165 14.375-.002.244.085.489.089.723.003 1.604-.075 3.136.243 4.607.176.79.813 1.551.709 2.448-.543.148-1.096-.187-1.627-.009 1.492 3.314 1.681 8.271 3.922 10.867.273.324.767.646 1.167 1.006.708.621 1.178 1.113 2.162 1.277-.199.201.112.705-.186.902-.832-.35-2.4-.475-2.801.346 1.677.469 2.487 1.488 3.507 2.643.568.639 1.095 1.43 1.71 1.998.458.424 1.18.76 1.801 1.182.598.406 1.219.924 1.801 1.189.785.354 1.962.588 2.888.826.856.227 2.412.324 2.161 1.459-1.347-.066-3.094.646-3.898 1.699.756.23 1.451.078 2.174.191.739.115 1.385.562 2.072.734.646.168 1.34.189 1.985.375 1.893.533 3.835 1.543 5.781 1.838 2.941.449 6.444-.207 8.407-.857 2.209-.727 4.384-1.787 6.793-1.861-.16-.619-.895-.729-1.442-.82-.839-.139-1.853-.057-2.804-.109-.693-.033-1.438-.182-2.168-.191-.933-.01-2.025.168-3.074.162-.32 0-.427.098-.631.092-.256-.014-.541-.162-.814-.186-1.645-.137-3.313.051-4.794-.027-.729-.045-1.649-.184-2.437-.287-.623-.08-2.116.012-1.896-.914 1.756-.078 3.446.076 5.068-.059 2.007-.172 3.871-.936 5.79-1.055 1.92-.117 3.76.314 5.697.033-3.76-2.307-7.209-4.922-10.899-7.293-1.747-.365-3.308-.734-5.062-.844-1.323-.078-2.728-.189-4.063-.117-.619.045-1.203.264-1.81.266-.297-.002-.6-.115-.903-.098-1.803.105-3.457.953-5.254.967-.021-.188-.244-.176-.266-.363.365-.65 1.223-.838 1.813-1.168.246-.133.394-.324.633-.445 1.374-.668 3.039-1.145 4.715-1.514.434-.365.97-.355 1.63-.439.273-.039.658-.17.904-.176 1.154-.033 2.235.678 3.251.467-1.09-1.225-2.413-2.24-3.509-3.453-.405-.445-.706-.984-1.076-1.453-.383-.485-.8-.903-1.077-1.452-.584.171-1.194-.199-1.626-.191-3.648-.288-7.597-1.342-11.013-2.504-.309-.101-.956-.127-.993-.634.836-.369 1.75-.154 3.166-.076 1.236.071 2.43.451 3.613.475 1.802.04 3.465-.267 4.975-.066-.613-.914-1.12-2.088-1.797-2.991-.128-.169-.32-.199-.447-.364-.15-.187-.132-.444-.271-.636-.475-.651-.985-1.201-1.436-1.904-.422-.661-1.247-1.301-1.16-2.089.724-.094 1.53.54 2.07 1.01.801.687 1.601 1.415 2.157 2.182.301.41.596.814.902 1.177.18.216.389.34.539.545.278.386.398.889.717 1.183.535-2.819.855-5.857.229-8.496-.057-.24-.271-.461-.357-.726-.098-.292-.078-.653-.176-.91-.201-.508-.613-.93-.809-1.451-.265-.688-.324-1.423-.618-2.08-.265-.573-.955-1.142-.626-1.81.45-.028.738.464.812.728.029.128.123.012.181.089 1.562 2.224 2.24 6.047 2.931 8.786.2.789.307 1.57.35 2.265.069 1.039-.006 2.054.076 3.074.026.385.246.678.263.993.01.193-.125.379-.091.635.217 1.792 1.069 3.663 1.961 4.711.279.333.47.649.719.909a19.097 19.097 0 0 0 3.419 2.822c1.755 1.123 3.409 2.516 5.318 3.104-.302-4.445.138-8.98-.562-13.113-.306-1.803-.473-2.924-1.062-4.164-.219-.461-.966-1.271-.258-1.808.839.267.84 1.024 1.256 1.72.121.211.318.37.445.545.903 1.259 1.213 3.349 1.599 5.165.637 2.989.526 5.909.947 8.956.213 1.559.466 3.316 1.147 4.434.312.516.899.826 1.17 1.365 1.25.684 2.582 1.279 3.516 2.281 1.112.246 1.727.984 2.609 1.461.289-6.74 2.388-13.754 1.378-20.059-.338-.089-.396-.94.006-1.002.303.066.43.293.451.637 1.062 1.844 1.173 4.97 1.312 7.238.08 1.285.092 2.451.073 3.617-.007.221-.165.383-.185.635-.019.238.102.564.083.811-.135 2.256-.568 4.691-.578 6.418-.006 1.125-.031 3.463.431 4.34.242.48.883.734 1.347 1.092.506.387.876.822 1.354 1.094-.044-2.584.975-4.357 1.028-6.684.374-.266.43-.844.549-1.262.292-1.014.43-1.725.65-2.621.34-1.375.826-2.812.927-4.24.305-4.244-1.146-7.658-2.292-10.323-.627-1.46-1.249-2.841-2.059-4.076-.678-1.036-1.453-1.803-2.243-2.542-1.29-1.214-2.625-2.352-4.049-3.375zM26.148 7.783c1.208.986 2.416 1.792 3.324 3.092.649-1.368-.423-2.638-.159-3.89 1.745-.143 3.222.729 4.425 1.47 1.186.742 2.28 1.948 3.149 2.91 1.9 2.116 3.596 4.622 5.021 7.085-.154-2.544-.685-4.717-1.502-6.61.036-.223-.564-.272-.266-.457.453-.622 1.483-.512 2.078-.257.407.172.947.571 1.446.913 1.179.804 2.747 2.033 3.867 2.913 1.644 1.287 3.216 2.749 4.407 4.638.57.907 1.097 1.906 1.609 2.901.388.749.633 1.542.978 2.443 1.047 2.699 2.151 6.427 1.758 9.958-.098.852-.44 1.77-.649 2.707-.336 1.48-.64 2.807-1.021 4.152-.19.693-.311 1.205-.555 2.08-.137.512-.462 1.342-.554 2.072-.037.338.065.682-.005.996-.085.402-.454.779-.55 1.264-.114.588.081 1.178-.189 1.713 1.006 1.477 3.801 2.172 3.5 4.906-.025.24-.137.496-.186.723-.179.855-.277 1.748-.736 2.527-.389.607-1.013.611-1.092 1.258-2.098-2.484-3.86-5.299-6.016-7.719-2.871-.734-5.224.867-7.783 1.676-3.271 1.027-7.715 1.119-11.301-.062-1.065-.355-2.462-.898-3.701-1.285-.105-.037-.46-.16-.46-.184-.216-.008-.322.207-.531.178-1.434-.242-3.357-1.342-5.147-1.387-.396-.01-.538.27-.904.082-.071-.828.577-.994.819-1.711.72-.398 1.243-.99 2.089-1.254-1.863-.518-3.073-1.002-4.509-1.834-1.494-.863-2.538-1.785-3.692-3.092-.445-.516-.92-1.078-1.437-1.635-.725-.791-2.119-1.574-3.787-1.467.061-1.518 1.438-1.701 2.635-2.068.079-.57-.748-.641-1.079-.91-.227-.182-.776-.873-.991-1.184-.283-.402-.607-.877-.809-1.27-.231-.463-.315-1.047-.534-1.535-.23-.533-.455-.943-.621-1.451-.7-2.144-1.083-4.455-1.954-6.251-.407-.287-.573-.813-.897-1.183-.017-.105.019-.158.089-.18.145-.902 1.496-.575 2.171-.35-.146-.979-.596-2.02-.706-2.982-.084-.748.021-1.64.014-2.531-.012-3.196.33-5.801.772-8.768.091-.617.14-1.1.189-1.718.033-.331-.005-.797.01-1.263.027-.811.266-1.545.193-2.35-.076-.992-.56-1.904-.345-2.894C7.491.85 8.163 1.769 9.274 2.26c1.943 1.708 3.354 3.937 5.21 5.726.344-1.975.772-4.649-.421-6.061.199-.267.106-.313.098-.723.386-.132.512.359.72.547.476.433.998.874 1.62 1.273.273.182.662.459.9.554.845.325 1.76.324 2.615.557.717.19 1.524.679 2.258 1.003 1.5.674 2.638 1.631 3.874 2.647z" fill="#000000" data-color="2"/>
    </g>
</svg>
