<?xml version="1.0" standalone="no"?>
<!DOCTYPE svg PUBLIC "-//W3C//DTD SVG 20010904//EN"
 "http://www.w3.org/TR/2001/REC-SVG-20010904/DTD/svg10.dtd">
<svg version="1.0" xmlns="http://www.w3.org/2000/svg"
 width="1982.000000pt" height="1982.000000pt" viewBox="0 0 1982.000000 1982.000000"
 preserveAspectRatio="xMidYMid meet">

<g transform="translate(0.000000,1982.000000) scale(0.100000,-0.100000)"
fill="#000000" stroke="none">
<path d="M14845 16064 c-940 -128 -1711 -233 -1712 -233 -1 -1 -20 -61 -43
-133 -134 -425 -397 -1208 -554 -1649 -558 -1568 -1053 -2754 -1641 -3929
-277 -553 -620 -1192 -658 -1223 -12 -10 -59 -40 -105 -67 -147 -86 -244 -162
-388 -305 -300 -298 -519 -658 -629 -1038 -19 -66 -35 -125 -35 -133 0 -16
-327 -323 -535 -501 -310 -265 -634 -508 -874 -652 -588 -355 -1333 -537
-2121 -518 -265 6 -408 23 -590 67 -340 84 -594 243 -747 470 -193 286 -293
779 -293 1440 0 917 171 1984 501 3140 376 1314 928 2487 1481 3145 85 102
266 279 348 342 228 174 441 254 670 254 184 0 307 -49 414 -162 183 -193 263
-516 236 -946 -22 -353 -84 -659 -215 -1061 -31 -96 -55 -175 -53 -176 48 -39
230 -136 339 -181 308 -126 668 -123 945 10 289 139 535 439 652 795 81 245
112 474 113 810 0 394 -63 688 -212 999 -170 355 -448 657 -769 833 -430 237
-1078 349 -1841 318 -814 -33 -1491 -196 -2127 -514 -493 -246 -880 -533
-1307 -967 -968 -986 -1630 -2110 -2071 -3514 -453 -1441 -640 -2769 -549
-3895 109 -1353 630 -2239 1616 -2749 612 -316 1367 -458 2249 -421 486 20
853 70 1285 175 1202 294 2315 969 3315 2010 74 77 138 141 141 143 3 1 11
-23 19 -55 7 -32 32 -118 57 -192 229 -694 643 -1213 1268 -1591 605 -365
1341 -526 2240 -490 443 18 861 80 1290 190 844 217 1479 555 2010 1071 138
135 143 138 393 288 1235 741 2305 1619 3205 2631 l128 145 -487 3 -487 2 -28
-22 c-15 -13 -79 -66 -141 -119 -252 -213 -590 -456 -973 -699 -233 -148 -540
-330 -543 -321 -2 5 6 53 17 107 50 247 56 329 55 844 0 588 -10 768 -124
2225 -169 2161 -278 3911 -360 5760 -11 248 -20 456 -20 463 0 6 -10 12 -22
11 -13 -1 -792 -106 -1733 -235z m-1509 -3540 c107 -1265 244 -2821 259 -2959
86 -782 136 -1650 115 -2018 -41 -742 -248 -1211 -683 -1548 -371 -288 -805
-429 -1322 -430 -259 -1 -462 25 -638 82 -161 53 -348 168 -453 280 -217 232
-344 624 -360 1109 -5 159 -4 164 12 135 99 -174 317 -275 599 -275 311 0 565
121 757 359 206 256 299 528 285 836 -7 162 -41 281 -118 413 -51 86 -208 238
-316 306 -51 32 -93 60 -93 62 0 1 112 227 249 501 286 570 412 834 622 1296
406 895 747 1763 964 2459 27 86 51 155 53 154 1 -2 32 -345 68 -762z"/>
</g>
</svg>
