<?xml version="1.0" standalone="no"?>
<!DOCTYPE svg PUBLIC "-//W3C//DTD SVG 20010904//EN"
 "http://www.w3.org/TR/2001/REC-SVG-20010904/DTD/svg10.dtd">
<svg version="1.0" xmlns="http://www.w3.org/2000/svg"
 width="1982.000000pt" height="1982.000000pt" viewBox="0 0 1982.000000 1982.000000"
 preserveAspectRatio="xMidYMid meet">

<g transform="translate(0.000000,1982.000000) scale(0.100000,-0.100000)"
fill="#000000" stroke="none">
<path d="M12310 12585 c-454 -63 -833 -115 -844 -117 -15 -2 -46 -86 -160
-428 -269 -804 -502 -1403 -778 -2005 -142 -308 -199 -422 -369 -740 l-140
-260 -60 -34 c-82 -48 -187 -137 -260 -224 -108 -128 -213 -325 -249 -470 -11
-41 -25 -59 -114 -140 -382 -351 -653 -531 -943 -626 -351 -115 -833 -132
-1081 -39 -310 116 -421 361 -422 928 0 482 79 971 253 1575 166 573 410 1110
653 1436 136 182 293 317 422 361 93 31 229 32 287 1 107 -57 167 -175 185
-359 16 -176 -13 -393 -86 -632 -20 -64 -38 -124 -41 -133 -8 -26 186 -117
290 -136 331 -60 590 134 688 515 43 169 43 446 -1 617 -70 275 -239 496 -469
614 -203 104 -379 140 -723 148 -327 8 -571 -22 -839 -100 -395 -117 -715
-311 -1018 -617 -523 -528 -871 -1145 -1095 -1942 -159 -564 -222 -985 -220
-1473 1 -311 17 -458 74 -680 166 -642 609 -1017 1340 -1132 142 -22 573 -24
745 -4 739 88 1372 408 1957 988 81 81 149 145 151 142 1 -2 13 -40 26 -83
147 -517 589 -907 1155 -1021 190 -38 326 -48 550 -42 289 9 498 41 769 119
372 106 651 262 917 514 50 47 126 101 230 164 544 328 1062 748 1464 1189
l138 151 -244 0 -243 0 -80 -67 c-102 -85 -232 -181 -365 -270 -108 -71 -349
-220 -374 -229 -12 -5 -12 5 0 62 8 36 19 132 25 213 15 211 3 472 -66 1366
-81 1058 -142 2034 -170 2735 -9 214 -15 280 -28 279 -7 -1 -383 -52 -837
-114z m-715 -2310 c36 -418 74 -848 85 -955 72 -718 71 -1039 -2 -1295 -105
-362 -427 -603 -848 -634 -420 -30 -660 100 -759 410 -26 79 -51 242 -51 329
l0 65 20 -33 c27 -44 100 -89 168 -103 31 -6 99 -9 152 -7 88 3 105 7 172 41
138 68 252 218 294 387 25 101 16 229 -24 313 -36 77 -93 142 -168 192 -30 20
-54 38 -54 41 0 2 63 130 140 284 318 635 568 1221 725 1695 30 94 59 177 62
185 8 18 7 30 88 -915z"/>
</g>
</svg>
